# xmcd CD database file
#
# Track frame offsets:
#	150
#	17758
#	36289
#	55168
#	73024
#	88252
#	105462
#	119042
#	139888
#	153759
#	171533
#	194456
#
# Disc length: 4337 seconds
#
# Revision: 2
# Processed by: cddbd v1.5.2PL0 Copyright (c) Steve Scherf et al.
# Submitted via: CDex 1.51
#
DISCID=ad10ef0c
DTITLE=Clem Snide - You Were a Diamond
DYEAR=2002
DGENRE=Alternative
TTITLE0=Better
TTITLE1=Nick Drake Tape
TTITLE2=Row
TTITLE3=Your Night to Shine
TTITLE4=I Can't Stay Here Tonight
TTITLE5=Yip/jump music
TTITLE6=Uglier Than You
TTITLE7=Fruit Salad Stains
TTITLE8=Lost on the River
TTITLE9=Nothing is Over, Not Yet
TTITLE10=Chinese Baby
TTITLE11=Data Track
EXTD=YEAR: 2002
EXTT0=
EXTT1=
EXTT2=
EXTT3=
EXTT4=
EXTT5=
EXTT6=
EXTT7=
EXTT8=
EXTT9=
EXTT10=
EXTT11=
PLAYORDER=
